<svg width="121" height="191" viewBox="0 0 121 191" fill="none" xmlns="http://www.w3.org/2000/svg">
<path d="M101.815 34.8505C104.328 38.5874 103.839 41.9715 103.252 46.2255C103.11 47.2835 103.11 47.2835 102.966 48.3629C101.041 61.1842 95.7923 73.607 87.8146 83.8505C88.9655 86.3442 90.2381 88.4592 91.8146 90.7255C95.7179 96.8244 96.2839 102.784 96.8146 109.85C97.4746 109.685 98.1346 109.52 98.8146 109.35C103.965 108.492 108.068 107.884 112.752 110.475C115.296 113.405 115.458 115.015 115.815 118.85C113.636 139.508 99.2674 153.746 83.8107 166.288C76.4529 171.931 76.4529 171.931 73.4982 171.558C72.9426 171.324 72.387 171.091 71.8146 170.85C73.1944 167.815 74.3616 165.3 76.7443 162.936C78.8515 160.813 80.1997 158.81 81.6896 156.225C82.1949 155.357 82.7002 154.488 83.2209 153.593C83.7468 152.688 84.2727 151.783 84.8146 150.85C86.4438 148.192 88.0756 145.535 89.713 142.882C90.9735 140.943 90.9735 140.943 90.8146 138.85C80.9806 143.544 80.9806 143.544 73.3029 151.046C66.6858 159.07 56.3424 164.938 47.8146 170.85C47.1489 171.323 46.4832 171.796 45.7973 172.284C39.791 176.447 33.4863 179.629 26.8771 182.725C25.8375 183.223 24.7978 183.721 23.7267 184.233C16.0899 187.85 16.0899 187.85 13.8146 187.85C13.8146 188.51 20.8146 185.609 12.3146 189.35C10.0046 189.68 9.19461 190.51 6.81461 190.85C8.32745 186.566 11.5101 184.703 15.1271 182.288C21.8514 177.639 28.1094 172.627 34.2443 167.228C35.7884 165.873 37.3477 164.538 38.9084 163.202C50.7694 152.886 65.1258 137.66 67.1232 121.327C67.4354 115.054 67.4354 115.054 64.3771 109.725C57.8742 105.557 50.2581 106.677 43.0334 108.073C31.9892 110.74 22.4097 115.415 12.5294 120.862C9.69232 122.417 6.86058 123.74 3.81461 124.85C6.00125 112.392 21.6233 99.8753 31.1271 92.4755C39.112 86.9457 48.4386 83.0418 57.7521 80.3505C63.0004 78.6801 66.7165 75.4387 70.8146 71.8505C71.3101 71.4259 71.8056 71.0013 72.3161 70.5639C83.4413 60.9829 91.8458 50.4209 99.5373 37.8974C100.815 35.8505 100.815 35.8505 101.815 34.8505Z" fill="#62C6DD"/>
<path d="M75.8146 6.85048C76.0415 7.61361 76.2683 8.37673 76.5021 9.16298C78.414 13.0779 80.9625 13.9244 84.8146 15.8505C84.8146 16.5105 84.8146 17.1705 84.8146 17.8505C84.2413 17.9758 83.668 18.101 83.0773 18.2301C68.1466 21.514 68.1466 21.514 53.8966 26.9325C51.8146 27.8505 51.8146 27.8505 49.8146 27.8505C50.619 28.758 51.4233 29.6655 52.2521 30.6005C55.7125 34.7884 55.7125 34.7884 55.8146 37.8505C54.423 42.4173 50.5778 44.2198 46.7521 46.6005C30.3808 57.2401 21.7883 69.8557 14.8146 87.8505C12.8615 86.9833 12.8615 86.9833 10.8146 85.8505C9.34849 81.6965 9.74079 77.2048 9.8146 72.8505C8.70085 74.0261 8.70085 74.0261 7.5646 75.2255C5.27026 77.4155 3.69301 78.6778 0.814595 79.8505C-0.333049 76.464 -0.319747 75.146 1.18569 71.8349C9.95114 58.115 20.371 48.1116 33.8146 38.8505C32.8452 38.1492 31.8758 37.448 30.8771 36.7255C28.5955 34.7869 27.7969 33.8098 26.5646 30.9755C26.9423 26.2541 29.3574 23.9236 32.8146 20.8505C35.1871 19.2688 37.2714 18.0559 39.8146 16.8505C40.6177 16.4509 41.4208 16.0513 42.2482 15.6395C68.3702 3.12828 68.3702 3.12828 75.8146 6.85048Z" fill="url(#paint0_linear_1_112)"/>
<path d="M56.8146 51.8505C60.2261 53.5562 62.1981 54.8855 64.2521 58.1005C65.3215 63.3285 64.6002 67.3397 62.1896 71.9755C58.6964 76.2041 55.0911 80.0916 49.8146 81.8505C45.2578 82.2521 41.1518 82.391 36.8771 80.663C33.849 78.0019 31.9886 75.9671 31.6466 71.8075C31.9389 65.5183 34.221 61.1193 38.8146 56.8505C44.5949 52.8747 49.8238 50.8019 56.8146 51.8505Z" fill="#69C9DF"/>
<path d="M84.8146 0.850484C87.1896 3.03798 87.1896 3.03798 89.8146 5.85048C90.8906 6.73451 91.9745 7.60893 93.0646 8.47548C98.0117 12.6449 101.806 17.8074 105.815 22.8505C106.831 24.0416 107.851 25.23 108.877 26.413C110.815 28.8505 110.04 28.0757 111.315 29.3505C112.815 30.8505 112.135 30.8505 112.815 30.8505C114.252 32.7138 114.252 32.7138 115.815 35.163C116.588 36.3637 116.588 36.3637 117.377 37.5888C117.851 38.3351 118.326 39.0815 118.815 39.8505C119.475 40.8405 120.135 41.8305 120.815 42.8505C120.44 45.038 120.44 45.038 119.815 46.8505C118.536 45.7969 117.267 44.7322 116.002 43.663C115.294 43.0713 114.587 42.4796 113.858 41.87C111.654 39.6919 110.392 37.5085 108.815 34.8505C105.303 30.7097 101.554 26.786 97.8146 22.8505C97.3493 22.3565 96.8839 21.8624 96.4044 21.3534C90.0683 14.6608 83.4537 9.00726 75.8146 3.85048C76.1446 2.86048 76.4746 1.87048 76.8146 0.850484C80.2353 -0.289747 81.4315 -0.277225 84.8146 0.850484Z" fill="#614208"/>
<defs>
<linearGradient id="paint0_linear_1_112" x1="81.8146" y1="-0.649514" x2="7.31461" y2="84.3505" gradientUnits="userSpaceOnUse">
<stop stop-color="#FFB70E"/>
<stop offset="0.447115" stop-color="white"/>
<stop offset="0.980769" stop-color="#16E100"/>
</linearGradient>
</defs>
</svg>
